<svg xmlns="http://www.w3.org/2000/svg" xmlns:xlink="http://www.w3.org/1999/xlink" width="1080" height="1080" viewBox="0 0 1080 1080">
  <defs>
    <clipPath id="clip-símbolo_sandwich">
      <rect width="1080" height="1080"/>
    </clipPath>
  </defs>
  <g id="símbolo_sandwich" data-name="símbolo sandwich" clip-path="url(#clip-símbolo_sandwich)">
    <g id="Grupo_3" data-name="Grupo 3" transform="translate(-1.31 13)">
      <g id="Grupo_2" data-name="Grupo 2">
        <g id="Grupo_1" data-name="Grupo 1">
          <path id="Trazado_2" data-name="Trazado 2" d="M312.733-57.229c-35.017-6.149-112.719-9.444-112.719-9.444s-35.917,18.119-73.4,31.191C67.4-14.833-6.944,5.157-6.944,5.157" transform="translate(192.5 422)" fill="none" stroke="#032ca6" stroke-width="20"/>
          <path id="Trazado_3" data-name="Trazado 3" d="M0,0S15.879,51.832,103.349,68.959s130.879-27.17,130.879-27.17" transform="translate(268.5 512.5)" fill="none" stroke="#032ca6" stroke-width="10"/>
          <path id="Trazado_4" data-name="Trazado 4" d="M-10.329-14.389s-9.555,72.374,105.4,86.433S248.885,57.985,253.02,91.065,71.893,91.141,25.582,49.792" transform="translate(298.5 557.5)" fill="none" stroke="#032ca6" stroke-width="10"/>
          <path id="Trazado_5" data-name="Trazado 5" d="M-8.334-45.3S-54.585,55.558-26.1,73.327C-9.48,83.7,61.4,18.643,215.3,44.748c34.055,5.777,77.623,9.6,111.451,0,28.2-8.006,46-23.72,59.826-16.575s31.85,87.734-116.4,22.874" transform="translate(307.5 637.5)" fill="none" stroke="#032ca6" stroke-width="10"/>
          <path id="Trazado_6" data-name="Trazado 6" d="M65.935-21.557S26.426-20.427-1.323,2.67c-11.8,9.822-39.218,45.605-31.719,62.273,3.607,8.018,23.731,20.074,43.228,19.62,21.9-.509,43.463-14.079,47.168-11.768" transform="translate(220.739 617.399) rotate(8)" fill="none" stroke="#032ca6" stroke-width="10"/>
          <path id="Trazado_7" data-name="Trazado 7" d="M68.831-21.651S26.426-20.427-1.323,2.67c-11.8,9.822-39.218,45.605-31.719,62.273,3.607,8.018,23.731,20.074,43.228,19.62,21.9-.509,50.282-15.762,53.987-13.451" transform="translate(220.739 617.399) rotate(8)" fill="none" stroke="#032ca6" stroke-width="10"/>
          <path id="Trazado_8" data-name="Trazado 8" d="M123.318-6.875,64.626-34.206S8.842-61.944,12.195-45.12C14.089-35.615,28.646-15.9,59.809-15.739s-29.409,60.792-27.8,61.8" transform="translate(177.201 583.399) rotate(8)" fill="none" stroke="#032ca6" stroke-width="10"/>
          <path id="Trazado_9" data-name="Trazado 9" d="M-.866,6.634S-22.783,48.256,39.969,78.317c25.414,12.175,79.663-8.386,225.014,39.133,81.978,26.8,150.862,57.451,233.273,61.779,34.2,1.8,185.848-86.379,168.232-226.208" transform="translate(192.5 683)" fill="none" stroke="#032ca6" stroke-width="20"/>
          <g id="Trazado_10" data-name="Trazado 10" transform="translate(499 320)" fill="none">
            <path d="M62.5,0c34.518,0,84,34.1,84,63.092s-25.182,49.423-59.7,49.423S0,81.495,0,52.5,27.982,0,62.5,0Z" stroke="none"/>
            <path d="M 62.49998474121094 10 C 33.55137634277344 10 9.999984741210938 29.06541442871094 9.999984741210938 52.5 C 9.999984741210938 73.53456115722656 54.50365447998047 102.5155029296875 86.80467987060547 102.5155029296875 C 116.0669021606445 102.5155029296875 136.5040130615234 86.30405426025391 136.5040130615234 63.09219741821289 C 136.5040130615234 41.2598876953125 92.93154144287109 10 62.49998474121094 10 M 62.49998474121094 0 C 97.01779174804688 0 146.5040130615234 34.09725189208984 146.5040130615234 63.09219741821289 C 146.5040130615234 92.08714294433594 121.3224868774414 112.5155029296875 86.80467987060547 112.5155029296875 C 52.28690338134766 112.5155029296875 -1.52587890625e-05 81.49494934082031 -1.52587890625e-05 52.5 C -1.52587890625e-05 23.50505828857422 27.98220825195312 0 62.49998474121094 0 Z" stroke="none" fill="#032ca6"/>
          </g>
          <path id="Trazado_11" data-name="Trazado 11" d="M91.118-17.416C80.406,27.7,73.938,65.054,69.043,94.4,58.308,158.761,58.483,185.2,58.483,185.2" transform="translate(521.39 159.5)" fill="none" stroke="#032ca6" stroke-width="10"/>
          <path id="Trazado_12" data-name="Trazado 12" d="M93.317-15.762c-11.434,45.492,3,87.867,0,113.4s-35.846,90.741-35.846,90.741" transform="translate(521.39 157.846)" fill="none" stroke="#032ca6" stroke-width="10"/>
          <path id="Trazado_13" data-name="Trazado 13" d="M-55.3,16.19S33.486,47.586,93.442,63.3s213.887,52.129,365.225-97.555" transform="translate(388.5 678.479)" fill="none" stroke="#032ca6" stroke-width="10"/>
          <path id="Trazado_14" data-name="Trazado 14" d="M-46.961,12.381s37.68,91.7,218.735,25.643" transform="translate(449.141 669.5)" fill="none" stroke="#032ca6" stroke-width="10"/>
          <path id="Trazado_15" data-name="Trazado 15" d="M667.432-58.821S638.438-.76,505.08,2.54,264.292-34.7,134-45.621-47.492-26.413-25.694-26.018" transform="translate(214.201 471.399) rotate(8)" fill="none" stroke="#032ca6" stroke-width="10"/>
          <path id="Trazado_16" data-name="Trazado 16" d="M667.432-58.821S638.438-.76,505.08,2.54,264.292-34.7,134-45.621-37.884-41.541-16.086-41.146" transform="translate(214.201 471.399) rotate(8)" fill="none" stroke="#032ca6" stroke-width="10"/>
          <path id="Trazado_17" data-name="Trazado 17" d="M150.314,121.7c29.423,4.991,123.909-78.3,160.353-109.913C316.137,7.042,278.922,3.737,282.813.87" transform="translate(536.5 588.409)" fill="none" stroke="#032ca6" stroke-width="10"/>
          <path id="Trazado_18" data-name="Trazado 18" d="M58.555,37.014c29.423,4.991,73.168-12.426,109.612-44.041,5.469-4.744-52.825-35.791-48.934-38.658" transform="translate(711.616 626.409)" fill="none" stroke="#032ca6" stroke-width="10"/>
          <path id="Trazado_19" data-name="Trazado 19" d="M46.9,40.768c29.423,4.991,57.911,26.942,71.124-30.311,5.469-4.744-40.591-3.984-36.7-6.851" transform="translate(789.162 542.865)" fill="none" stroke="#032ca6" stroke-width="10"/>
          <path id="Trazado_20" data-name="Trazado 20" d="M282.125,69.2c-.241,6.264-18.105,2.174-29.36,47.193s-32.854,50.509-90.34,44.276" transform="translate(329.5 517.915)" fill="none" stroke="#032ca6" stroke-width="10"/>
          <path id="Trazado_21" data-name="Trazado 21" d="M378.2,74.951c-7.6,2.548-59.21,22.02-93.464,34.743s-69.656,56.684-122.314,50.974" transform="translate(413.5 528.039)" fill="none" stroke="#032ca6" stroke-width="10"/>
          <path id="Trazado_22" data-name="Trazado 22" d="M-55.3,16.19S33.486,47.586,93.442,63.3,262.757,125.657,381.016-30.23" transform="translate(475.085 709.143)" fill="none" stroke="#032ca6" stroke-width="10"/>
          <path id="Trazado_23" data-name="Trazado 23" d="M0,0S-26.381,60.327,54.663,76.867" transform="translate(244.537 506.65)" fill="none" stroke="#032ca6" stroke-width="10"/>
          <g id="Trazado_24" data-name="Trazado 24" transform="translate(572.252 362)" fill="none">
            <path d="M25.025,0C38.845,0,58.659,11.856,58.659,21.937s-10.083,17.185-23.9,17.185S0,28.336,0,18.254,11.2,0,25.025,0Z" stroke="none"/>
            <path d="M 25.02455520629883 9.999998092651367 C 16.56306076049805 9.999998092651367 9.999988555908203 14.43725395202637 9.926372528076172 17.68036270141602 C 11.22815322875977 21.27692604064941 24.45318984985352 29.1220703125 34.75598907470703 29.1220703125 C 42.55216979980469 29.1220703125 48.65917205810547 25.9661808013916 48.69420623779297 22.29847145080566 C 47.65542602539062 18.53368949890137 34.90995407104492 9.999998092651367 25.02455520629883 9.999998092651367 M 25.02455520629883 0 C 38.84524536132812 0 58.65917205810547 11.85574340820312 58.65917205810547 21.93739891052246 C 58.65917205810547 32.0190544128418 48.57666397094727 39.1220703125 34.75598907470703 39.1220703125 C 20.93529891967773 39.1220703125 -1.1444091796875e-05 28.33610916137695 -1.1444091796875e-05 18.25445365905762 C -1.1444091796875e-05 8.172798156738281 11.20388031005859 0 25.02455520629883 0 Z" stroke="none" fill="#032ca6"/>
          </g>
          <path id="Trazado_25" data-name="Trazado 25" d="M-.411-.306s-22.372,48.562,40.38,78.623c25.414,12.175,79.663-8.386,225.014,39.133C346.96,144.251,459.3,183,541.708,187.33c34.2,1.8,84.546-7.5,114.6-43.326C668,130.075,725.794,71.719,675.877,34.992c-19.479-14.332-120.3-46.769-229.2-69.731" transform="translate(192.5 422)" fill="none" stroke="#032ca6" stroke-width="20"/>
        </g>
      </g>
    </g>
  </g>
</svg>
